<svg xmlns="http://www.w3.org/2000/svg" xmlns:xlink="http://www.w3.org/1999/xlink" contentStyleType="text/css" data-diagram-type="CLASS" height="1102px" preserveAspectRatio="none" style="width:1272px;height:1102px;background:#FFFFFF;" version="1.1" viewBox="0 0 1272 1102" width="1272px" zoomAndPan="magnify"><title>Architecture du TP</title><defs/><g><g class="title" data-source-line="5"><text fill="#000000" font-family="sans-serif" font-size="28" font-weight="bold" lengthAdjust="spacing" textLength="269.1582" x="488.1273" y="47.0703">Architecture du TP</text></g><!--cluster Application--><g class="cluster" data-entity="Application" data-source-line="7" data-uid="ent0002" id="cluster_Application"><path d="M357.3,86.9766 L523.3215,86.9766 A7.5,7.5 0 0 1 528.3215,91.9766 L542.3215,131.9531 L1133.3,131.9531 A5,5 0 0 1 1138.3,136.9531 L1138.3,1084.8966 A5,5 0 0 1 1133.3,1089.8966 L357.3,1089.8966 A5,5 0 0 1 352.3,1084.8966 L352.3,91.9766 A5,5 0 0 1 357.3,86.9766" fill="none" style="stroke:#000000;stroke-width:3;"/><line style="stroke:#000000;stroke-width:3;" x1="352.3" x2="542.3215" y1="131.9531" y2="131.9531"/><text fill="#000000" font-family="sans-serif" font-size="28" font-weight="bold" lengthAdjust="spacing" textLength="164.0215" x="360.3" y="118.0469">Application</text></g><g id="Application.CartState"><rect fill="#F1F1F1" height="100" rx="25" ry="25" style="stroke:#181818;stroke-width:1;" width="233.8125" x="589.38" y="156.9766"/><line style="stroke:#181818;stroke-width:1;" x1="589.38" x2="823.1925" y1="209.9531" y2="209.9531"/><text fill="#000000" font-family="sans-serif" font-size="28" lengthAdjust="spacing" textLength="193.8125" x="609.38" y="194.0469">cartItemCount</text></g><!--entity ProductList--><g class="entity" data-entity="ProductList" data-source-line="13" data-uid="ent0005" id="entity_ProductList"><rect fill="#F1F1F1" height="92.9766" rx="5" ry="5" style="stroke:#181818;stroke-width:1;" width="231.7168" x="846.44" y="717.9366"/><rect fill="#F1F1F1" height="20" style="stroke:#181818;stroke-width:1;" width="30" x="1038.1568" y="727.9366"/><rect fill="#F1F1F1" height="4" style="stroke:#181818;stroke-width:1;" width="8" x="1034.1568" y="731.9366"/><rect fill="#F1F1F1" height="4" style="stroke:#181818;stroke-width:1;" width="8" x="1034.1568" y="739.9366"/><text fill="#000000" font-family="sans-serif" font-size="28" lengthAdjust="spacing" textLength="151.7168" x="876.44" y="785.0069">ProductList</text></g><!--entity ProductCard--><g class="entity" data-entity="ProductCard" data-source-line="14" data-uid="ent0006" id="entity_ProductCard"><rect fill="#F1F1F1" height="92.9766" rx="5" ry="5" style="stroke:#181818;stroke-width:1;" width="247.8633" x="838.36" y="964.9166"/><rect fill="#F1F1F1" height="20" style="stroke:#181818;stroke-width:1;" width="30" x="1046.2233" y="974.9166"/><rect fill="#F1F1F1" height="4" style="stroke:#181818;stroke-width:1;" width="8" x="1042.2233" y="978.9166"/><rect fill="#F1F1F1" height="4" style="stroke:#181818;stroke-width:1;" width="8" x="1042.2233" y="986.9166"/><text fill="#000000" font-family="sans-serif" font-size="28" lengthAdjust="spacing" textLength="167.8633" x="868.36" y="1031.9869">ProductCard</text></g><!--entity App--><g class="entity" data-entity="App" data-source-line="8" data-uid="ent0003" id="entity_App"><rect fill="#F1F1F1" height="92.9766" rx="5" ry="5" style="stroke:#181818;stroke-width:1;" width="134.5645" x="387.02" y="440.9766"/><rect fill="#F1F1F1" height="20" style="stroke:#181818;stroke-width:1;" width="30" x="481.5845" y="450.9766"/><rect fill="#F1F1F1" height="4" style="stroke:#181818;stroke-width:1;" width="8" x="477.5845" y="454.9766"/><rect fill="#F1F1F1" height="4" style="stroke:#181818;stroke-width:1;" width="8" x="477.5845" y="462.9766"/><text fill="#000000" font-family="sans-serif" font-size="28" lengthAdjust="spacing" textLength="54.5645" x="417.02" y="508.0469">App</text></g><g class="entity" data-entity="GMN7" data-source-line="19" data-uid="ent0008" id="entity_GMN7"><path d="M12,166.3366 L12,247.5788 A0,0 0 0 0 12,247.5788 L199.56,247.5788 L407.38,440.4166 L215.56,247.5788 L320.5889,247.5788 A0,0 0 0 0 320.5889,247.5788 L320.5889,186.3366 L300.5889,166.3366 L12,166.3366 A0,0 0 0 0 12,166.3366" fill="#FEFFDD" style="stroke:#181818;stroke-width:1;"/><path d="M300.5889,166.3366 L300.5889,186.3366 L320.5889,186.3366 L300.5889,166.3366" fill="#FEFFDD" style="stroke:#181818;stroke-width:1;"/><text fill="#000000" font-family="sans-serif" font-size="26" font-weight="bold" lengthAdjust="spacing" textLength="211.834" x="24" y="201.4733">Responsabilit&#233;s</text><text fill="#000000" font-family="sans-serif" font-size="26" lengthAdjust="spacing" textLength="266.5889" x="24" y="232.0944">+ handleAddToCart()</text></g><!--entity User--><g class="entity" data-entity="User" data-source-line="28" data-uid="ent0012" id="entity_User"><ellipse cx="1218.2852" cy="427.9766" fill="#F1F1F1" rx="16" ry="16" style="stroke:#181818;stroke-width:1;"/><path d="M1218.2852,443.9766 L1218.2852,497.9766 M1192.2852,459.9766 L1244.2852,459.9766 M1218.2852,497.9766 L1192.2852,527.9766 M1218.2852,497.9766 L1244.2852,527.9766" fill="none" style="stroke:#181818;stroke-width:1;"/><text fill="#000000" font-family="sans-serif" font-size="28" lengthAdjust="spacing" textLength="60.7305" x="1187.92" y="558.0469">User</text></g><!--link App to ProductList--><g class="link" data-entity-1="App" data-entity-2="ProductList" data-source-line="23" data-uid="lnk10" id="link_App_ProductList"><path codeLine="23" d="M522.28,525.9966 C614.2,575.3766 767.5101,657.7552 867.2301,711.3552" fill="none" id="App-to-ProductList" style="stroke:#181818;stroke-width:2;"/><polygon fill="#181818" points="877.8,717.0366,865.7328,701.4679,868.9918,712.3021,858.1576,715.5611,877.8,717.0366" style="stroke:#181818;stroke-width:2;"/><text fill="#000000" font-family="sans-serif" font-size="26" lengthAdjust="spacing" textLength="88.5117" x="755.8" y="651.0733">Affiche</text></g><!--link ProductList to ProductCard--><g class="link" data-entity-1="ProductList" data-entity-2="ProductCard" data-source-line="24" data-uid="lnk11" id="link_ProductList_ProductCard"><path codeLine="24" d="M962.3,811.5566 C962.3,855.2166 962.3,920.9566 962.3,964.5166" fill="none" id="ProductList-ProductCard" style="stroke:#181818;stroke-width:2;"/><text fill="#000000" font-family="sans-serif" font-size="26" lengthAdjust="spacing" textLength="88.5117" x="964.3" y="898.0533">Affiche</text><text fill="#000000" font-family="sans-serif" font-size="26" lengthAdjust="spacing" textLength="16.4404" x="944.4041" y="851.9136">1</text><text fill="#000000" font-family="sans-serif" font-size="26" lengthAdjust="spacing" textLength="45.4238" x="912.5811" y="943.1043">0..*</text></g><!--link User to ProductCard--><g class="link" data-entity-1="User" data-entity-2="ProductCard" data-source-line="30" data-uid="lnk13" id="link_User_ProductCard"><path codeLine="30" d="M1204.18,564.8566 C1185.02,652.6966 1144.32,799.2566 1070.3,904.9166 C1055.32,926.2966 1044.3728,938.7304 1025.8528,955.9304" fill="none" id="User-to-ProductCard" style="stroke:#181818;stroke-width:2;"/><polygon fill="#181818" points="1017.06,964.0966,1035.6934,957.7092,1024.3874,957.2914,1024.8052,945.9855,1017.06,964.0966" style="stroke:#181818;stroke-width:2;"/><text fill="#000000" font-family="sans-serif" font-size="26" lengthAdjust="spacing" textLength="94.5928" x="1162.82" y="774.5733">Clic sur</text><text fill="#000000" font-family="sans-serif" font-size="26" lengthAdjust="spacing" textLength="92.8027" x="927.4097" y="943.3464">Ajouter</text></g><!--link ProductCard to App--><g class="link" data-entity-1="ProductCard" data-entity-2="App" data-source-line="31" data-uid="lnk14" id="link_ProductCard_App"><path codeLine="31" d="M837.86,992.5166 C727.94,970.5966 572.68,921.0766 490.3,810.9166 C429.26,729.2966 434.9822,613.6987 444.4822,546.4187" fill="none" id="ProductCard-to-App" style="stroke:#181818;stroke-width:2;stroke-dasharray:14,14;"/><polygon fill="#181818" points="446.16,534.5366,435.7219,551.2413,444.7619,544.4383,451.5648,553.4783,446.16,534.5366" style="stroke:#181818;stroke-width:2;"/><text fill="#000000" font-family="sans-serif" font-size="26" lengthAdjust="spacing" textLength="319.6426" x="492.3" y="774.5733">Appelle `onAddToCart()`</text></g><!--link App to CartState--><g class="link" data-entity-1="App" data-entity-2="CartState" data-source-line="32" data-uid="lnk15" id="link_App_CartState"><path codeLine="32" d="M522.46,483.0766 C609.62,475.9166 757.46,449.0566 826.3,350.9766 C849.1,318.4766 831.7312,291.8108 797.7312,265.2108" fill="none" id="App-to-CartState" style="stroke:#181818;stroke-width:2;"/><polygon fill="#181818" points="788.28,257.8166,797.5274,275.2087,796.156,263.9784,807.3863,262.607,788.28,257.8166" style="stroke:#181818;stroke-width:2;"/><text fill="#000000" font-family="sans-serif" font-size="26" lengthAdjust="spacing" textLength="198.0596" x="836.76" y="344.1133">Met &#224; jour l'&#233;tat</text></g><!--link CartState to App--><g class="link" data-entity-1="CartState" data-entity-2="App" data-source-line="33" data-uid="lnk16" id="link_CartState_App"><path codeLine="33" d="M588.44,226.1966 C533.72,240.7366 473.56,267.5566 440.3,316.9766 C416.04,352.9966 420.8928,392.2316 432.3528,428.5916" fill="none" id="CartState-to-App" style="stroke:#181818;stroke-width:2;stroke-dasharray:14,14;"/><polygon fill="#181818" points="435.96,440.0366,438.1791,420.4642,432.954,430.4991,422.9191,425.2739,435.96,440.0366" style="stroke:#181818;stroke-width:2;"/><text fill="#000000" font-family="sans-serif" font-size="26" lengthAdjust="spacing" textLength="366.7422" x="442.3" y="344.1133">D&#233;clenche un nouveau rendu</text></g><!--SRC=[RL51JWCn3Bpx5LOkmA9TmRM7IgjoGG890JtJaBWqa2Qhn04an5-uzXtxCRmBeWiY1n_6u_5uehsFBtTRz-h20m2mOq_O9hDnJ8PB8hG5Rwy0EcsUz0EXQhlEEwFPnQ3m3H1Dt7OnK62KreYyWvJCceLkTE9pfkqYbi0ATSQ583T34tuDNwLeY-4Bb_a_NAOiYF01BWDXYA9DcR6myoxtEy8kbeIUCYRACfhrlNIutsKOoHmxZEl1egXNrVKVKbK9V8mR7QodrjhREDWyF08ATjm6C5nNs_WIwldKBCwmNQ-TsH1CKNMgiAvHdJHDfQP7JFZojE6OS9af0GnLDjHx_M_-GWB7BEUfzZ4MfgHWIcXiqyp7y6T39IzVk8fXSiNgoxm8_uGlt4jYx3_mSGpkeDy93Fl-NlEitnbFGHnZ2H96UIPT9EPW2tm2]--></g></svg>