<svg xmlns="http://www.w3.org/2000/svg" xmlns:xlink="http://www.w3.org/1999/xlink" contentStyleType="text/css" data-diagram-type="DESCRIPTION" height="2068.75px" preserveAspectRatio="none" style="width:1772px;height:2068px;" version="1.1" viewBox="0 0 1772 2068" width="1772.9167px" zoomAndPan="magnify"><defs><linearGradient id="g1c4h8hxk99jtd0" x1="50%" x2="50%" y1="0%" y2="100%"><stop offset="0%" stop-color="#B8B8B8"/><stop offset="100%" stop-color="#6B6B6B"/></linearGradient><linearGradient id="g1c4h8hxk99jtd1" x1="50%" x2="50%" y1="0%" y2="100%"><stop offset="0%" stop-color="#7C9AB9"/><stop offset="100%" stop-color="#304D6D"/></linearGradient></defs><g><g class="header" data-source-line="52"><text fill="#FFFFFF" font-family="Verdana" font-size="20.8333" lengthAdjust="spacing" textLength="304.2094" x="1385.3739" y="85.5286">-[hidden]right-&gt; SearchPage</text></g><!--cluster Application--><g class="cluster" data-entity="Application" data-source-line="3" data-uid="ent0002" id="cluster_Application"><path d="M41.6667,148.2361 L216.1092,148.2361 A12.5,12.5 0 0 1 224.4425,156.5694 L239.0259,211.9527 L1739.5833,211.9527 A8.3333,8.3333 0 0 1 1747.9167,220.2861 L1747.9167,2036.7778 A8.3333,8.3333 0 0 1 1739.5833,2045.1111 L41.6667,2045.1111 A8.3333,8.3333 0 0 1 33.3333,2036.7778 L33.3333,156.5694 A8.3333,8.3333 0 0 1 41.6667,148.2361" fill="url(#g1c4h8hxk99jtd0)" style="stroke:#446E9B;stroke-width:4.1667;"/><line style="stroke:#446E9B;stroke-width:4.1667;" x1="33.3333" x2="239.0259" y1="211.9527" y2="211.9527"/><text fill="#446E9B" font-family="Verdana" font-size="25" font-weight="bold" lengthAdjust="spacing" textLength="157.7759" x="52.0833" y="187.9537">Application</text></g><!--cluster Context--><g class="cluster" data-entity="Context" data-source-line="6" data-uid="ent0004" id="cluster_Context"><path d="M837.5,1758.4861 L963.3341,1758.4861 A12.5,12.5 0 0 1 971.6675,1766.8194 L986.2508,1822.2027 L1204.1667,1822.2027 A8.3333,8.3333 0 0 1 1212.5,1830.5361 L1212.5,1986.7778 A8.3333,8.3333 0 0 1 1204.1667,1995.1111 L837.5,1995.1111 A8.3333,8.3333 0 0 1 829.1667,1986.7778 L829.1667,1766.8194 A8.3333,8.3333 0 0 1 837.5,1758.4861" fill="url(#g1c4h8hxk99jtd0)" style="stroke:#446E9B;stroke-width:4.1667;"/><line style="stroke:#446E9B;stroke-width:4.1667;" x1="829.1667" x2="986.2508" y1="1822.2027" y2="1822.2027"/><text fill="#446E9B" font-family="Verdana" font-size="25" font-weight="bold" lengthAdjust="spacing" textLength="109.1675" x="847.9167" y="1798.2037">Context</text></g><!--cluster Layout--><g class="cluster" data-entity="Layout" data-source-line="11" data-uid="ent0006" id="cluster_Layout"><path d="M1195.8333,449.4444 L1307.7637,449.4444 A12.5,12.5 0 0 1 1316.097,457.7778 L1330.6803,513.1611 L1441.6667,513.1611 A8.3333,8.3333 0 0 1 1450,521.4944 L1450,1031.0486 A8.3333,8.3333 0 0 1 1441.6667,1039.3819 L1195.8333,1039.3819 A8.3333,8.3333 0 0 1 1187.5,1031.0486 L1187.5,457.7778 A8.3333,8.3333 0 0 1 1195.8333,449.4444" fill="url(#g1c4h8hxk99jtd0)" style="stroke:#446E9B;stroke-width:4.1667;"/><line style="stroke:#446E9B;stroke-width:4.1667;" x1="1187.5" x2="1330.6803" y1="513.1611" y2="513.1611"/><text fill="#446E9B" font-family="Verdana" font-size="25" font-weight="bold" lengthAdjust="spacing" textLength="95.2637" x="1206.25" y="489.162">Layout</text></g><!--cluster Pages--><g class="cluster" data-entity="Pages" data-source-line="16" data-uid="ent0009" id="cluster_Pages"><path d="M477.0833,802.7361 L577.6855,802.7361 A12.5,12.5 0 0 1 586.0189,811.0694 L600.6022,866.4527 L1129.1667,866.4527 A8.3333,8.3333 0 0 1 1137.5,874.7861 L1137.5,1031.0486 A8.3333,8.3333 0 0 1 1129.1667,1039.3819 L477.0833,1039.3819 A8.3333,8.3333 0 0 1 468.75,1031.0486 L468.75,811.0694 A8.3333,8.3333 0 0 1 477.0833,802.7361" fill="url(#g1c4h8hxk99jtd0)" style="stroke:#446E9B;stroke-width:4.1667;"/><line style="stroke:#446E9B;stroke-width:4.1667;" x1="468.75" x2="600.6022" y1="866.4527" y2="866.4527"/><text fill="#446E9B" font-family="Verdana" font-size="25" font-weight="bold" lengthAdjust="spacing" textLength="83.9355" x="487.5" y="842.4537">Pages</text></g><!--cluster Components--><g class="cluster" data-entity="Components" data-source-line="21" data-uid="ent0012" id="cluster_Components"><path d="M195.8333,1108.1319 L387.2925,1108.1319 A12.5,12.5 0 0 1 395.6258,1116.4653 L410.2091,1171.8486 L1435.4167,1171.8486 A8.3333,8.3333 0 0 1 1443.75,1180.1819 L1443.75,1629.3194 A8.3333,8.3333 0 0 1 1435.4167,1637.6528 L195.8333,1637.6528 A8.3333,8.3333 0 0 1 187.5,1629.3194 L187.5,1116.4653 A8.3333,8.3333 0 0 1 195.8333,1108.1319" fill="url(#g1c4h8hxk99jtd0)" style="stroke:#446E9B;stroke-width:4.1667;"/><line style="stroke:#446E9B;stroke-width:4.1667;" x1="187.5" x2="410.2091" y1="1171.8486" y2="1171.8486"/><text fill="#446E9B" font-family="Verdana" font-size="25" font-weight="bold" lengthAdjust="spacing" textLength="174.7925" x="206.25" y="1147.8495">Components</text></g><!--entity App--><g class="entity" data-entity="App" data-source-line="4" data-uid="ent0003" id="entity_App"><rect fill="url(#g1c4h8hxk99jtd1)" height="113.7166" rx="8.3333" ry="8.3333" style="stroke:#304D6D;stroke-width:2.0833;" width="152.4089" x="652.9583" y="237.8194"/><rect fill="url(#g1c4h8hxk99jtd1)" height="20.8333" style="stroke:#304D6D;stroke-width:2.0833;" width="31.25" x="763.7005" y="248.2361"/><rect fill="url(#g1c4h8hxk99jtd1)" height="4.1667" style="stroke:#304D6D;stroke-width:2.0833;" width="8.3333" x="759.5339" y="252.4028"/><rect fill="url(#g1c4h8hxk99jtd1)" height="4.1667" style="stroke:#304D6D;stroke-width:2.0833;" width="8.3333" x="759.5339" y="260.7361"/><text fill="#FFFFFF" font-family="Verdana" font-size="25" lengthAdjust="spacing" textLength="48.2422" x="694.625" y="315.037">App</text></g><!--entity FavoritesContext--><g class="entity" data-entity="FavoritesContext" data-source-line="7" data-uid="ent0005" id="entity_FavoritesContext"><rect fill="url(#g1c4h8hxk99jtd1)" height="113.7166" rx="8.3333" ry="8.3333" style="stroke:#304D6D;stroke-width:2.0833;" width="316.6545" x="862.5" y="1848.0694"/><rect fill="url(#g1c4h8hxk99jtd1)" height="20.8333" style="stroke:#304D6D;stroke-width:2.0833;" width="31.25" x="1137.4878" y="1858.4861"/><rect fill="url(#g1c4h8hxk99jtd1)" height="4.1667" style="stroke:#304D6D;stroke-width:2.0833;" width="8.3333" x="1133.3211" y="1862.6528"/><rect fill="url(#g1c4h8hxk99jtd1)" height="4.1667" style="stroke:#304D6D;stroke-width:2.0833;" width="8.3333" x="1133.3211" y="1870.9861"/><text fill="#FFFFFF" font-family="Verdana" font-size="25" lengthAdjust="spacing" textLength="212.4878" x="904.1667" y="1925.287">FavoritesContext</text></g><!--entity LayoutComponent--><g class="entity" data-entity="LayoutComponent" data-source-line="12" data-uid="ent0007" id="entity_LayoutComponent"><rect fill="url(#g1c4h8hxk99jtd1)" height="113.7166" rx="8.3333" ry="8.3333" style="stroke:#304D6D;stroke-width:2.0833;" width="188.737" x="1220.2083" y="539.0278"/><rect fill="url(#g1c4h8hxk99jtd1)" height="20.8333" style="stroke:#304D6D;stroke-width:2.0833;" width="31.25" x="1367.2786" y="549.4444"/><rect fill="url(#g1c4h8hxk99jtd1)" height="4.1667" style="stroke:#304D6D;stroke-width:2.0833;" width="8.3333" x="1363.112" y="553.6111"/><rect fill="url(#g1c4h8hxk99jtd1)" height="4.1667" style="stroke:#304D6D;stroke-width:2.0833;" width="8.3333" x="1363.112" y="561.9444"/><text fill="#FFFFFF" font-family="Verdana" font-size="25" lengthAdjust="spacing" textLength="84.5703" x="1261.875" y="616.2454">Layout</text></g><!--entity Header--><g class="entity" data-entity="Header" data-source-line="13" data-uid="ent0008" id="entity_Header"><rect fill="url(#g1c4h8hxk99jtd1)" height="113.7166" rx="8.3333" ry="8.3333" style="stroke:#304D6D;stroke-width:2.0833;" width="193.9982" x="1221.75" y="892.3194"/><rect fill="url(#g1c4h8hxk99jtd1)" height="20.8333" style="stroke:#304D6D;stroke-width:2.0833;" width="31.25" x="1374.0815" y="902.7361"/><rect fill="url(#g1c4h8hxk99jtd1)" height="4.1667" style="stroke:#304D6D;stroke-width:2.0833;" width="8.3333" x="1369.9149" y="906.9028"/><rect fill="url(#g1c4h8hxk99jtd1)" height="4.1667" style="stroke:#304D6D;stroke-width:2.0833;" width="8.3333" x="1369.9149" y="915.2361"/><text fill="#FFFFFF" font-family="Verdana" font-size="25" lengthAdjust="spacing" textLength="89.8315" x="1263.4167" y="969.537">Header</text></g><!--entity SearchPage--><g class="entity" data-entity="SearchPage" data-source-line="17" data-uid="ent0010" id="entity_SearchPage"><rect fill="url(#g1c4h8hxk99jtd1)" height="113.7166" rx="8.3333" ry="8.3333" style="stroke:#304D6D;stroke-width:2.0833;" width="251.237" x="501.4583" y="892.3194"/><rect fill="url(#g1c4h8hxk99jtd1)" height="20.8333" style="stroke:#304D6D;stroke-width:2.0833;" width="31.25" x="711.0286" y="902.7361"/><rect fill="url(#g1c4h8hxk99jtd1)" height="4.1667" style="stroke:#304D6D;stroke-width:2.0833;" width="8.3333" x="706.862" y="906.9028"/><rect fill="url(#g1c4h8hxk99jtd1)" height="4.1667" style="stroke:#304D6D;stroke-width:2.0833;" width="8.3333" x="706.862" y="915.2361"/><text fill="#FFFFFF" font-family="Verdana" font-size="25" lengthAdjust="spacing" textLength="147.0703" x="543.125" y="969.537">SearchPage</text></g><!--entity FavoritesPage--><g class="entity" data-entity="FavoritesPage" data-source-line="18" data-uid="ent0011" id="entity_FavoritesPage"><rect fill="url(#g1c4h8hxk99jtd1)" height="113.7166" rx="8.3333" ry="8.3333" style="stroke:#304D6D;stroke-width:2.0833;" width="279.3742" x="824.8958" y="892.3194"/><rect fill="url(#g1c4h8hxk99jtd1)" height="20.8333" style="stroke:#304D6D;stroke-width:2.0833;" width="31.25" x="1062.6034" y="902.7361"/><rect fill="url(#g1c4h8hxk99jtd1)" height="4.1667" style="stroke:#304D6D;stroke-width:2.0833;" width="8.3333" x="1058.4367" y="906.9028"/><rect fill="url(#g1c4h8hxk99jtd1)" height="4.1667" style="stroke:#304D6D;stroke-width:2.0833;" width="8.3333" x="1058.4367" y="915.2361"/><text fill="#FFFFFF" font-family="Verdana" font-size="25" lengthAdjust="spacing" textLength="175.2075" x="866.5625" y="969.537">FavoritesPage</text></g><!--entity SearchBar--><g class="entity" data-entity="SearchBar" data-source-line="22" data-uid="ent0013" id="entity_SearchBar"><rect fill="url(#g1c4h8hxk99jtd1)" height="113.7166" rx="8.3333" ry="8.3333" style="stroke:#304D6D;stroke-width:2.0833;" width="233.5002" x="220.75" y="1197.7153"/><rect fill="url(#g1c4h8hxk99jtd1)" height="20.8333" style="stroke:#304D6D;stroke-width:2.0833;" width="31.25" x="412.5835" y="1208.1319"/><rect fill="url(#g1c4h8hxk99jtd1)" height="4.1667" style="stroke:#304D6D;stroke-width:2.0833;" width="8.3333" x="408.4168" y="1212.2986"/><rect fill="url(#g1c4h8hxk99jtd1)" height="4.1667" style="stroke:#304D6D;stroke-width:2.0833;" width="8.3333" x="408.4168" y="1220.6319"/><text fill="#FFFFFF" font-family="Verdana" font-size="25" lengthAdjust="spacing" textLength="129.3335" x="262.4167" y="1274.9329">SearchBar</text></g><!--entity WeatherCard--><g class="entity" data-entity="WeatherCard" data-source-line="23" data-uid="ent0014" id="entity_WeatherCard"><rect fill="url(#g1c4h8hxk99jtd1)" height="113.7166" rx="8.3333" ry="8.3333" style="stroke:#304D6D;stroke-width:2.0833;" width="268.7419" x="628.125" y="1490.5903"/><rect fill="url(#g1c4h8hxk99jtd1)" height="20.8333" style="stroke:#304D6D;stroke-width:2.0833;" width="31.25" x="855.2002" y="1501.0069"/><rect fill="url(#g1c4h8hxk99jtd1)" height="4.1667" style="stroke:#304D6D;stroke-width:2.0833;" width="8.3333" x="851.0335" y="1505.1736"/><rect fill="url(#g1c4h8hxk99jtd1)" height="4.1667" style="stroke:#304D6D;stroke-width:2.0833;" width="8.3333" x="851.0335" y="1513.5069"/><text fill="#FFFFFF" font-family="Verdana" font-size="25" lengthAdjust="spacing" textLength="164.5752" x="669.7917" y="1567.8079">WeatherCard</text></g><!--entity FavoritesList--><g class="entity" data-entity="FavoritesList" data-source-line="24" data-uid="ent0015" id="entity_FavoritesList"><rect fill="url(#g1c4h8hxk99jtd1)" height="113.7166" rx="8.3333" ry="8.3333" style="stroke:#304D6D;stroke-width:2.0833;" width="262.4674" x="1147.9375" y="1197.7153"/><rect fill="url(#g1c4h8hxk99jtd1)" height="20.8333" style="stroke:#304D6D;stroke-width:2.0833;" width="31.25" x="1368.7383" y="1208.1319"/><rect fill="url(#g1c4h8hxk99jtd1)" height="4.1667" style="stroke:#304D6D;stroke-width:2.0833;" width="8.3333" x="1364.5716" y="1212.2986"/><rect fill="url(#g1c4h8hxk99jtd1)" height="4.1667" style="stroke:#304D6D;stroke-width:2.0833;" width="8.3333" x="1364.5716" y="1220.6319"/><text fill="#FFFFFF" font-family="Verdana" font-size="25" lengthAdjust="spacing" textLength="158.3008" x="1189.6042" y="1274.9329">FavoritesList</text></g><!--entity Spinner--><g class="entity" data-entity="Spinner" data-source-line="25" data-uid="ent0016" id="entity_Spinner"><rect fill="url(#g1c4h8hxk99jtd1)" height="113.7166" rx="8.3333" ry="8.3333" style="stroke:#304D6D;stroke-width:2.0833;" width="200.8952" x="526.6458" y="1197.7153"/><rect fill="url(#g1c4h8hxk99jtd1)" height="20.8333" style="stroke:#304D6D;stroke-width:2.0833;" width="31.25" x="685.8743" y="1208.1319"/><rect fill="url(#g1c4h8hxk99jtd1)" height="4.1667" style="stroke:#304D6D;stroke-width:2.0833;" width="8.3333" x="681.7077" y="1212.2986"/><rect fill="url(#g1c4h8hxk99jtd1)" height="4.1667" style="stroke:#304D6D;stroke-width:2.0833;" width="8.3333" x="681.7077" y="1220.6319"/><text fill="#FFFFFF" font-family="Verdana" font-size="25" lengthAdjust="spacing" textLength="96.7285" x="568.3125" y="1274.9329">Spinner</text></g><!--entity ErrorMessage--><g class="entity" data-entity="ErrorMessage" data-source-line="26" data-uid="ent0017" id="entity_ErrorMessage"><rect fill="url(#g1c4h8hxk99jtd1)" height="113.7166" rx="8.3333" ry="8.3333" style="stroke:#304D6D;stroke-width:2.0833;" width="274.6501" x="800.1667" y="1197.7153"/><rect fill="url(#g1c4h8hxk99jtd1)" height="20.8333" style="stroke:#304D6D;stroke-width:2.0833;" width="31.25" x="1033.1501" y="1208.1319"/><rect fill="url(#g1c4h8hxk99jtd1)" height="4.1667" style="stroke:#304D6D;stroke-width:2.0833;" width="8.3333" x="1028.9834" y="1212.2986"/><rect fill="url(#g1c4h8hxk99jtd1)" height="4.1667" style="stroke:#304D6D;stroke-width:2.0833;" width="8.3333" x="1028.9834" y="1220.6319"/><text fill="#FFFFFF" font-family="Verdana" font-size="25" lengthAdjust="spacing" textLength="170.4834" x="841.8333" y="1274.9329">ErrorMessage</text></g><!--link App to LayoutComponent--><g class="link" data-entity-1="App" data-entity-2="LayoutComponent" data-source-line="32" data-uid="lnk18" id="link_App_LayoutComponent"><path d="M806.0833,301.5486 C908.1667,311.3819 1089.7917,341.4028 1212.5,432.7778 C1248.6042,459.6736 1269.7319,492.1669 1286.6903,527.2919" fill="none" id="App-to-LayoutComponent" style="stroke:#446E9B;stroke-width:6.25;"/><polygon fill="#446E9B" points="1292.125,538.5486,1291.4774,518.0404,1287.5961,529.168,1276.4684,525.2867,1292.125,538.5486" style="stroke:#446E9B;stroke-width:6.25;"/></g><!--link App to FavoritesContext--><!--link LayoutComponent to Header--><g class="link" data-entity-1="LayoutComponent" data-entity-2="Header" data-source-line="34" data-uid="lnk20" id="link_LayoutComponent_Header"><path d="M1315.25,653.2986 C1316.0208,718.4653 1317.165,813.6536 1317.9358,878.9661" fill="none" id="LayoutComponent-to-Header" style="stroke:#446E9B;stroke-width:6.25;stroke-dasharray:14.5833,14.5833;"/><polygon fill="#446E9B" points="1318.0833,891.4653,1326.1948,872.6182,1317.9604,881.0493,1309.5293,872.8149,1318.0833,891.4653" style="stroke:#446E9B;stroke-width:6.25;"/></g><!--link LayoutComponent to SearchPage--><g class="link" data-entity-1="LayoutComponent" data-entity-2="SearchPage" data-source-line="35" data-uid="lnk21" id="link_LayoutComponent_SearchPage"><path d="M1219.3333,650.1736 C1217.0625,651.0694 1214.7708,651.9236 1212.5,652.7361 C1078.3125,700.8611 1030.125,661.9444 897.9167,715.2361 C843.8333,737.0486 832.875,749.4653 787.5,786.0694 C747.5833,818.2778 715.3663,850.1641 684.9288,882.7474" fill="none" id="LayoutComponent-to-SearchPage" style="stroke:#446E9B;stroke-width:6.25;stroke-dasharray:14.5833,14.5833;"/><polygon fill="#446E9B" points="676.3958,891.8819,695.2849,883.8688,683.5066,884.2698,683.1056,872.4915,676.3958,891.8819" style="stroke:#446E9B;stroke-width:6.25;"/><text fill="#FFFFFF" font-family="Verdana" font-size="25" lengthAdjust="spacing" textLength="145.1172" x="910.4167" y="752.8704">(via Outlet)</text></g><!--link LayoutComponent to FavoritesPage--><g class="link" data-entity-1="LayoutComponent" data-entity-2="FavoritesPage" data-source-line="36" data-uid="lnk22" id="link_LayoutComponent_FavoritesPage"><path d="M1219.1667,649.4861 C1189.2708,668.0486 1157.3125,690.5694 1131.25,715.2361 C1075.4583,768.0903 1032.5883,831.2451 1002.3591,881.2867" fill="none" id="LayoutComponent-to-FavoritesPage" style="stroke:#446E9B;stroke-width:6.25;stroke-dasharray:14.5833,14.5833;"/><polygon fill="#446E9B" points="995.8958,891.9861,1012.7236,880.2459,1001.2819,883.07,998.4578,871.6282,995.8958,891.9861" style="stroke:#446E9B;stroke-width:6.25;"/><text fill="#FFFFFF" font-family="Verdana" font-size="25" lengthAdjust="spacing" textLength="145.1172" x="1143.75" y="752.8704">(via Outlet)</text></g><!--link SearchPage to SearchBar--><g class="link" data-entity-1="SearchPage" data-entity-2="SearchBar" data-source-line="38" data-uid="lnk23" id="link_SearchPage_SearchBar"><path d="M571.9792,1006.9653 C546.75,1032.5903 516.5417,1063.4653 489.5833,1091.4653 C455.9792,1126.3611 427.1856,1156.815 397.8939,1187.9817" fill="none" id="SearchPage-to-SearchBar" style="stroke:#446E9B;stroke-width:6.25;"/><polygon fill="#446E9B" points="389.3333,1197.0903,408.2466,1189.1345,396.4672,1189.4998,396.1018,1177.7203,389.3333,1197.0903" style="stroke:#446E9B;stroke-width:6.25;"/></g><!--link SearchPage to WeatherCard--><g class="link" data-entity-1="SearchPage" data-entity-2="WeatherCard" data-source-line="39" data-uid="lnk24" id="link_SearchPage_WeatherCard"><path d="M570.5417,1007.0069 C548.3333,1025.6736 521.5208,1044.6319 493.75,1056.0486 C429.5208,1082.4236 229.5625,1039.6528 183.3333,1091.4653 C118.25,1164.4028 128.6667,1230.3819 183.3333,1311.4236 C189.9583,1321.2569 446.5206,1422.4245 615.5831,1488.3412" fill="none" id="SearchPage-to-WeatherCard" style="stroke:#446E9B;stroke-width:6.25;"/><polygon fill="#446E9B" points="627.2292,1492.8819,612.7872,1478.3067,617.5241,1489.098,606.7329,1493.8348,627.2292,1492.8819" style="stroke:#446E9B;stroke-width:6.25;"/></g><!--link SearchPage to Spinner--><g class="link" data-entity-1="SearchPage" data-entity-2="Spinner" data-source-line="40" data-uid="lnk25" id="link_SearchPage_Spinner"><path d="M627.0833,1006.5069 C627.0833,1060.8611 627.0833,1130.8611 627.0833,1185.0903" fill="none" id="SearchPage-to-Spinner" style="stroke:#446E9B;stroke-width:6.25;stroke-dasharray:14.5833,14.5833;"/><polygon fill="#446E9B" points="627.0833,1197.5903,635.4167,1178.8403,627.0833,1187.1736,618.75,1178.8403,627.0833,1197.5903" style="stroke:#446E9B;stroke-width:6.25;"/></g><!--link SearchPage to ErrorMessage--><g class="link" data-entity-1="SearchPage" data-entity-2="ErrorMessage" data-source-line="41" data-uid="lnk26" id="link_SearchPage_ErrorMessage"><path d="M684.0208,1006.5069 C739.8542,1060.6944 815.5509,1134.1345 871.4259,1188.3637" fill="none" id="SearchPage-to-ErrorMessage" style="stroke:#446E9B;stroke-width:6.25;stroke-dasharray:14.5833,14.5833;"/><polygon fill="#446E9B" points="880.3958,1197.0694,872.7447,1178.0308,872.9209,1189.8146,861.1371,1189.9908,880.3958,1197.0694" style="stroke:#446E9B;stroke-width:6.25;"/></g><!--link FavoritesPage to FavoritesList--><g class="link" data-entity-1="FavoritesPage" data-entity-2="FavoritesList" data-source-line="43" data-uid="lnk27" id="link_FavoritesPage_FavoritesList"><path d="M1022.2917,1006.5069 C1078.875,1060.6944 1155.6389,1134.1945 1212.2639,1188.4236" fill="none" id="FavoritesPage-to-FavoritesList" style="stroke:#446E9B;stroke-width:6.25;"/><polygon fill="#446E9B" points="1221.2917,1197.0694,1213.5139,1178.0822,1213.7685,1189.8646,1201.9862,1190.1192,1221.2917,1197.0694" style="stroke:#446E9B;stroke-width:6.25;"/></g><!--link FavoritesList to WeatherCard--><g class="link" data-entity-1="FavoritesList" data-entity-2="WeatherCard" data-source-line="44" data-uid="lnk28" id="link_FavoritesList_WeatherCard"><path d="M1179.5417,1312.3194 C1088.0625,1363.4444 953.2083,1438.7986 861.8125,1489.8819" fill="none" id="FavoritesList-WeatherCard" style="stroke:#446E9B;stroke-width:6.25;"/><text fill="#FFFFFF" font-family="Verdana" font-size="25" lengthAdjust="spacing" textLength="15.8936" x="1132.299" y="1363.7597">1</text><text fill="#FFFFFF" font-family="Verdana" font-size="25" lengthAdjust="spacing" textLength="49.9756" x="817.0857" y="1458.529">0..*</text></g><!--link FavoritesPage to FavoritesContext--><g class="link" data-entity-1="FavoritesPage" data-entity-2="FavoritesContext" data-source-line="47" data-uid="lnk29" id="link_FavoritesPage_FavoritesContext"><path d="M1066.3542,1007.0278 C1103.5208,1025.2361 1146.5,1043.8819 1187.5,1056.0486 C1242.6042,1072.3819 1405.9792,1048.1111 1443.75,1091.4653 C1608.0833,1280.0694 1568,1437.1944 1443.75,1654.3194 C1387.2917,1752.9861 1286.3106,1811.6886 1191.4773,1849.7095" fill="none" id="FavoritesPage-to-FavoritesContext" style="stroke:#446E9B;stroke-width:6.25;stroke-dasharray:14.5833,14.5833;"/><polygon fill="#446E9B" points="1179.875,1854.3611,1200.3795,1855.1185,1189.5436,1850.4847,1194.1773,1839.6488,1179.875,1854.3611" style="stroke:#446E9B;stroke-width:6.25;"/><text fill="#FFFFFF" font-family="Verdana" font-size="25" lengthAdjust="spacing" textLength="140.1733" x="1563.5417" y="1411.5579">Consomme</text></g><!--link FavoritesList to FavoritesContext--><g class="link" data-entity-1="FavoritesList" data-entity-2="FavoritesContext" data-source-line="48" data-uid="lnk30" id="link_FavoritesList_FavoritesContext"><path d="M1292.9375,1311.8194 C1312.7292,1403.6319 1339.5625,1590.9653 1268.75,1725.1528 C1241.0625,1777.5903 1200.8922,1811.7539 1152.3714,1840.7956" fill="none" id="FavoritesList-to-FavoritesContext" style="stroke:#446E9B;stroke-width:6.25;stroke-dasharray:14.5833,14.5833;"/><polygon fill="#446E9B" points="1141.6458,1847.2153,1162.014,1844.7361,1150.5838,1841.8655,1153.4544,1830.4354,1141.6458,1847.2153" style="stroke:#446E9B;stroke-width:6.25;"/><text fill="#FFFFFF" font-family="Verdana" font-size="25" lengthAdjust="spacing" textLength="140.1733" x="1327.3333" y="1557.9954">Consomme</text></g><!--link WeatherCard to FavoritesContext--><g class="link" data-entity-1="WeatherCard" data-entity-2="FavoritesContext" data-source-line="49" data-uid="lnk31" id="link_WeatherCard_FavoritesContext"><path d="M746.8125,1604.9861 C739.7292,1641.2569 736.7292,1688.5278 756.25,1725.1528 C784.75,1778.6111 826.3754,1812.7133 877.1671,1841.2758" fill="none" id="WeatherCard-to-FavoritesContext" style="stroke:#446E9B;stroke-width:6.25;stroke-dasharray:14.5833,14.5833;"/><polygon fill="#446E9B" points="888.0625,1847.4028,875.804,1830.9487,878.983,1842.2969,867.6347,1845.4759,888.0625,1847.4028" style="stroke:#446E9B;stroke-width:6.25;"/><text fill="#FFFFFF" font-family="Verdana" font-size="25" lengthAdjust="spacing" textLength="479.4922" x="768.75" y="1708.6204">Consomme (pour le bouton "Ajouter")</text></g><!--SRC=[XLJBJiCm4BpxAvPSU4YjW6CFI50e81MAA8W3uh0agyQGsi5s2WZnGNm7FyQcILh7RSKbsdXcTySpKRPSIbC2csDC6JuBmSKhJWYYuppFP8nEQXN1bm28zJJNYfG3XWGVBAXzhHnzk8hc4mSuqqOwiZM3uU-oSnl6e-7ztUNe6WvwS2vd1Ap3QqGeb7mh232JQFrTG_pKnPfL2m0jL6M_mGBc1M52ff6o67p3JxiwTqneuhG4Dzsjnhu3IshUnf4dQ8Bp1q9smVJH99js3QKDhpFEfL8KpZepHfihihOHn_AsuPOpBWErmalWi0VtjWf0qNlbE4Z5HGQcQKXbRWNd3ftEqOg_y_F7L2O9gQT4lolch4GVD46tUzH4iGvQ-Wuzs9b9X57XCdAxQzcjCC86uSqgvI_z3m0_00-QowbT3evRDeksYexlmZourXj41n5p8DhlTlUYrcvEv_Jt9oULe8h90XPGkqZ1ZjRTQmvVdokhfrCADlx7zZJynuMTN1S6Ce9d3aCh_b-yS44csYtb3xBY0nA2H2lr-qDML4alln8Z9wdh-37_0G00]--></g></svg>