<svg xmlns="http://www.w3.org/2000/svg" xmlns:xlink="http://www.w3.org/1999/xlink" contentStyleType="text/css" data-diagram-type="DESCRIPTION" height="1240px" preserveAspectRatio="none" style="width:1240px;height:1240px;background:#FFFFFF;" version="1.1" viewBox="0 0 1240 1240" width="1240px" zoomAndPan="magnify"><title>Rendu de liste avec .map() et 'key'</title><defs/><g><g class="title" data-source-line="4"><text fill="#000000" font-family="sans-serif" font-size="28" font-weight="bold" lengthAdjust="spacing" textLength="489.4395" x="361.2803" y="47.0703">Rendu de liste avec .map() et 'key'</text></g><!--cluster Component--><g class="cluster" data-entity="Component" data-source-line="13" data-uid="ent0003" id="cluster_Component"><rect fill="none" height="174.98" rx="5" ry="5" style="stroke:#181818;stroke-width:2;" width="736" x="492" y="344.9766"/><text fill="#000000" font-family="sans-serif" font-size="28" font-weight="bold" lengthAdjust="spacing" textLength="326.5938" x="696.7031" y="376.0469">Composant `UserList`</text></g><!--cluster VDOM--><g class="cluster" data-entity="VDOM" data-source-line="17" data-uid="ent0005" id="cluster_VDOM"><rect fill="none" height="370.98" rx="5" ry="5" style="stroke:#181818;stroke-width:2;" width="862" x="14" y="633.9566"/><text fill="#000000" font-family="sans-serif" font-size="28" font-weight="bold" lengthAdjust="spacing" textLength="176.5996" x="356.7002" y="665.0269">Virtual DOM</text></g><!--cluster UL--><g class="cluster" data-entity="UL" data-source-line="18" data-uid="ent0006" id="cluster_UL"><polygon fill="none" points="78,755.9566,98,735.9566,796,735.9566,796,920.9366,776,940.9366,78,940.9366,78,755.9566" style="stroke:#181818;stroke-width:2;"/><line style="stroke:#181818;stroke-width:2;" x1="776" x2="796" y1="755.9566" y2="735.9566"/><line style="stroke:#181818;stroke-width:2;" x1="78" x2="776" y1="755.9566" y2="755.9566"/><line style="stroke:#181818;stroke-width:2;" x1="776" x2="776" y1="755.9566" y2="940.9366"/><text fill="#000000" font-family="sans-serif" font-size="28" font-weight="bold" lengthAdjust="spacing" textLength="72.0371" x="392.9814" y="789.0269">&lt;ul&gt;</text></g><!--entity Map--><g class="entity" data-entity="Map" data-source-line="14" data-uid="ent0004" id="entity_Map"><rect fill="#F1F1F1" height="72.9766" rx="5" ry="5" style="stroke:#181818;stroke-width:1;" width="672.0918" x="523.96" y="414.9766"/><text fill="#000000" font-family="sans-serif" font-size="28" lengthAdjust="spacing" textLength="632.0918" x="543.96" y="462.0469">users.map(user =&gt; &lt;li key={user.id}&gt;...&lt;/li&gt;)</text></g><!--entity LI1--><g class="entity" data-entity="LI1" data-source-line="19" data-uid="ent0007" id="entity_LI1"><polygon fill="#F1F1F1" points="109.74,835.9566,129.74,815.9566,394.2713,815.9566,394.2713,888.9331,374.2713,908.9331,109.74,908.9331,109.74,835.9566" style="stroke:#181818;stroke-width:1;"/><line style="stroke:#181818;stroke-width:1;" x1="374.2713" x2="394.2713" y1="835.9566" y2="815.9566"/><line style="stroke:#181818;stroke-width:1;" x1="109.74" x2="374.2713" y1="835.9566" y2="835.9566"/><line style="stroke:#181818;stroke-width:1;" x1="374.2713" x2="374.2713" y1="835.9566" y2="908.9331"/><text fill="#000000" font-family="sans-serif" font-size="28" lengthAdjust="spacing" textLength="204.5313" x="139.74" y="883.0269">&lt;li&gt; (key='u1')</text></g><!--entity LI2--><g class="entity" data-entity="LI2" data-source-line="20" data-uid="ent0008" id="entity_LI2"><polygon fill="#F1F1F1" points="463.64,835.9566,483.64,815.9566,764.3724,815.9566,764.3724,888.9331,744.3724,908.9331,463.64,908.9331,463.64,835.9566" style="stroke:#181818;stroke-width:1;"/><line style="stroke:#181818;stroke-width:1;" x1="744.3724" x2="764.3724" y1="835.9566" y2="815.9566"/><line style="stroke:#181818;stroke-width:1;" x1="463.64" x2="744.3724" y1="835.9566" y2="835.9566"/><line style="stroke:#181818;stroke-width:1;" x1="744.3724" x2="744.3724" y1="835.9566" y2="908.9331"/><text fill="#000000" font-family="sans-serif" font-size="28" lengthAdjust="spacing" textLength="220.7324" x="493.64" y="883.0269">&lt;li&gt; (key='-u2')</text></g><g class="entity" data-entity="Data" data-source-line="6" data-uid="ent0002" id="entity_Data"><rect fill="#F1F1F1" height="122.9297" rx="5" ry="5" style="stroke:#181818;stroke-width:1;" width="437.9336" x="642" y="88.9766"/><text fill="#000000" font-family="sans-serif" font-size="28" lengthAdjust="spacing" textLength="217.793" x="752.0703" y="120.0469">Donn&#233;es (Array)</text><line style="stroke:#181818;stroke-width:2;" x1="734.9805" x2="734.9805" y1="129.9531" y2="211.9063"/><line style="stroke:#181818;stroke-width:2;" x1="642" x2="1079.9336" y1="129.9531" y2="129.9531"/><text fill="#000000" font-family="sans-serif" font-size="28" lengthAdjust="spacing" textLength="72.9805" x="652" y="161.0234">users</text><text fill="#000000" font-family="sans-serif" font-size="28" lengthAdjust="spacing" textLength="324.9531" x="744.9805" y="161.0234">{ id: 'u1', name: 'Sarah' }</text><line style="stroke:#181818;stroke-width:2;" x1="734.9805" x2="1079.9336" y1="170.9297" y2="170.9297"/><text fill="#000000" font-family="sans-serif" font-size="28" lengthAdjust="spacing" textLength="315.4922" x="744.9805" y="202">{ id: 'u2', name: 'Marc' }</text></g><g class="entity" data-entity="GMN11" data-source-line="28" data-uid="ent0012" id="entity_GMN11"><path d="M623.24,1114.9366 L623.24,1226.7998 L1096.7664,1226.7998 L1096.7664,1134.9366 L1076.7664,1114.9366 L623.24,1114.9366" fill="#FEFFDD" style="stroke:#181818;stroke-width:1;"/><path d="M1076.7664,1114.9366 L1076.7664,1134.9366 L1096.7664,1134.9366 L1076.7664,1114.9366" fill="#FEFFDD" style="stroke:#181818;stroke-width:2;"/><text fill="#000000" font-family="sans-serif" font-size="26" lengthAdjust="spacing" textLength="393.9102" x="635.24" y="1150.0733">La `key` aide React &#224; identifier</text><text fill="#000000" font-family="sans-serif" font-size="26" lengthAdjust="spacing" textLength="431.5264" x="635.24" y="1180.6944">chaque `&lt;li&gt;` de mani&#232;re unique</text><text fill="#000000" font-family="sans-serif" font-size="26" lengthAdjust="spacing" textLength="270.4102" x="635.24" y="1211.3155">lors des mises &#224; jour.</text></g><!--link Data to Map--><g class="link" data-entity-1="Data" data-entity-2="Map" data-source-line="24" data-uid="lnk9" id="link_Data_Map"><path d="M860,218.7366 C860,279.3766 860,354.4766 860,402.4366" fill="none" id="Data-to-Map" style="stroke:#181818;stroke-width:2;"/><polygon fill="#181818" points="860,414.4366,868,396.4366,860,404.4366,852,396.4366,860,414.4366" style="stroke:#181818;stroke-width:2;"/><text fill="#000000" font-family="sans-serif" font-size="26" lengthAdjust="spacing" textLength="118.8027" x="862" y="306.1133">en entr&#233;e</text></g><!--link Map to VDOM--><g class="link" data-entity-1="Map" data-entity-2="VDOM" data-source-line="25" data-uid="lnk10" id="link_Map_VDOM"><path d="M860,488.8766 C860,513.2416 860,548.1178 860,586.8562 C860,596.5409 860,606.4669 860,616.5303 C860,621.5621 860,626.6282 860,631.7157 C860,632.3517 860,620.9879 860,621.6245" fill="none" id="Map-to-VDOM" style="stroke:#181818;stroke-width:2;"/><polygon fill="#181818" points="860,633.6245,868,615.6245,860,623.6245,852,615.6245,860,633.6245" style="stroke:#181818;stroke-width:2;"/><text fill="#000000" font-family="sans-serif" font-size="26" lengthAdjust="spacing" textLength="86.4424" x="862" y="579.0933">g&#233;n&#232;re</text></g><!--link VDOM to GMN11--><g class="link" data-entity-1="VDOM" data-entity-2="GMN11" data-source-line="28" data-uid="lnk13" id="link_VDOM_GMN11"><path d="M860,1005.9783 C860,1006.4027 860,1006.8271 860,1007.2517 C860,1008.1007 860,1008.9502 860,1009.8 C860,1013.199 860,1016.6026 860,1020.004 C860,1026.8067 860,1033.6005 860,1040.3309 C860,1067.2528 860,1093.1616 860,1114.5766" fill="none" id="VDOM-GMN11" style="stroke:#181818;stroke-width:2;stroke-dasharray:14,14;"/></g><!--SRC=[RL9DQm8n4BtdLppsiWfrYnv55qgz59H2YrvAOQUxKMDt4vja2oB-bnxhx_2FTHBf9uLbcSoylFTc9bxvMk9Ewgf59L4hvoNeLPR86jfskf0UwRFSfK9idD589aRhqr4wTAwifLqt0JbCo1Fs0aXQ9wrBXdZW0n_tKDKGQTjFBw2faHpVawLrYaDoyHio-8RCo9O1mO17SH32ojAJNh7HvDeqM-D8UnHpbfgoto9QY0KjkH1y_BWH7SLcGeHnZb6jm2sDzo6HgUgGPraskgnLVkvcHji_gWjbVKir9hUpY5Xm47MquQ4bexREOtu-ZTclF5EY4wJ21Cxaqvl-_uWUJ-0JCc388NY8W-rLlJoOmX1Iy-SjBq24HAn4CqEiJaTzUhTI26ruXq_6UzF0B6ET-QQ4WeKAaAh2ngdqEBtny9bGBPMqZ2dNzD9A5C5M4Tv3Gre5KhHQSOKXjR6EAmwDSlndXerfRIRu1I48Ymy0]--></g></svg>