<svg xmlns="http://www.w3.org/2000/svg" xmlns:xlink="http://www.w3.org/1999/xlink" contentStyleType="text/css" data-diagram-type="STATE" height="938px" preserveAspectRatio="none" style="width:1616px;height:938px;background:#FFFFFF;" version="1.1" viewBox="0 0 1616 938" width="1616px" zoomAndPan="magnify"><title>Cycle de Vie avec useEffect</title><defs/><g><g class="title" data-source-line="3"><text fill="#000000" font-family="sans-serif" font-size="28" font-weight="bold" lengthAdjust="spacing" textLength="391.3301" x="598.5072" y="47.0703">Cycle de Vie avec useEffect</text></g><g id="Mounted"><rect fill="#F1F1F1" height="129.5078" rx="25" ry="25" style="stroke:#181818;stroke-width:1;" width="313" x="100.52" y="319.8566"/><line style="stroke:#181818;stroke-width:1;" x1="100.52" x2="413.52" y1="372.8331" y2="372.8331"/><text fill="#000000" font-family="sans-serif" font-size="28" lengthAdjust="spacing" textLength="248.7461" x="132.647" y="356.9269">Composant Mont&#233;</text><text fill="#000000" font-family="sans-serif" font-size="24" lengthAdjust="spacing" textLength="8.9648" x="110.52" y="406.0363">"</text><text fill="#000000" font-family="sans-serif" font-size="24" font-weight="bold" lengthAdjust="spacing" textLength="234.2109" x="119.4848" y="406.0363">useEffect(effect, [])</text><text fill="#000000" font-family="sans-serif" font-size="24" lengthAdjust="spacing" textLength="8.9648" x="353.6958" y="406.0363">"</text><text fill="#000000" font-family="sans-serif" font-size="24" lengthAdjust="spacing" textLength="273" x="110.52" y="434.3019">- `effect()` est ex&#233;cut&#233;</text></g><g id="Updated"><rect fill="#F1F1F1" height="186.0391" rx="25" ry="25" style="stroke:#181818;stroke-width:1;" width="586.6445" x="1015.7" y="291.5966"/><line style="stroke:#181818;stroke-width:1;" x1="1015.7" x2="1602.3445" y1="344.5731" y2="344.5731"/><text fill="#000000" font-family="sans-serif" font-size="28" lengthAdjust="spacing" textLength="298.3887" x="1159.8279" y="328.6669">Composant Mis &#224; Jour</text><text fill="#000000" font-family="sans-serif" font-size="24" font-weight="bold" lengthAdjust="spacing" textLength="280.0781" x="1025.7" y="377.7763">useEffect(effect, [dep])</text><text fill="#000000" font-family="sans-serif" font-size="24" lengthAdjust="spacing" textLength="249.3047" x="1025.7" y="406.0419">- Si `dep` a chang&#233; :</text><text fill="#000000" font-family="sans-serif" font-size="24" lengthAdjust="spacing" textLength="531.457" x="1040.8875" y="434.3075">- `cleanup()` de l'effet pr&#233;c&#233;dent est ex&#233;cut&#233;</text><text fill="#000000" font-family="sans-serif" font-size="24" lengthAdjust="spacing" textLength="456.4102" x="1040.8875" y="462.5731">- `effect()` du nouvel effet est ex&#233;cut&#233;</text></g><g id="Unmounted"><rect fill="#F1F1F1" height="129.5078" rx="25" ry="25" style="stroke:#181818;stroke-width:1;" width="504.3203" x="648.86" y="631.6366"/><line style="stroke:#181818;stroke-width:1;" x1="648.86" x2="1153.1803" y1="684.6131" y2="684.6131"/><text fill="#000000" font-family="sans-serif" font-size="28" lengthAdjust="spacing" textLength="287.3418" x="757.3493" y="668.7069">Composant D&#233;mont&#233;</text><text fill="#000000" font-family="sans-serif" font-size="24" font-weight="bold" lengthAdjust="spacing" textLength="181.2188" x="658.86" y="717.8163">return cleanup</text><text fill="#000000" font-family="sans-serif" font-size="24" lengthAdjust="spacing" textLength="464.3203" x="658.86" y="746.0819">- La fonction de nettoyage est ex&#233;cut&#233;e</text></g><ellipse cx="257.02" cy="112.2766" fill="#222222" rx="20" ry="20" style="stroke:#222222;stroke-width:2;"/><ellipse cx="901.02" cy="905.1366" fill="none" rx="22" ry="22" style="stroke:#222222;stroke-width:2;"/><ellipse cx="901.02" cy="905.1366" fill="#222222" rx="12" ry="12" style="stroke:#222222;stroke-width:2;"/><g class="entity" data-entity="GMN2" data-source-line="23" data-uid="ent0003" id="entity_GMN2"><path d="M483.56,359.2966 L483.56,376.6166 L414.46,384.6166 L483.56,392.6166 L483.56,409.9177 A0,0 0 0 0 483.56,409.9177 L946.4858,409.9177 A0,0 0 0 0 946.4858,409.9177 L946.4858,379.2966 L926.4858,359.2966 L483.56,359.2966 A0,0 0 0 0 483.56,359.2966" fill="#FEFFDD" style="stroke:#181818;stroke-width:1;"/><path d="M926.4858,359.2966 L926.4858,379.2966 L946.4858,379.2966 L926.4858,359.2966" fill="#FEFFDD" style="stroke:#181818;stroke-width:1;"/><text fill="#000000" font-family="sans-serif" font-size="26" lengthAdjust="spacing" textLength="420.9258" x="495.56" y="394.4333">Id&#233;al pour les appels API initiaux.</text></g><g class="entity" data-entity="GMN5" data-source-line="24" data-uid="ent0006" id="entity_GMN5"><path d="M1027.8,86.9766 L1027.8,137.5977 A0,0 0 0 0 1027.8,137.5977 L1301.02,137.5977 L1309.02,291.1366 L1317.02,137.5977 L1590.2316,137.5977 A0,0 0 0 0 1590.2316,137.5977 L1590.2316,106.9766 L1570.2316,86.9766 L1027.8,86.9766 A0,0 0 0 0 1027.8,86.9766" fill="#FEFFDD" style="stroke:#181818;stroke-width:1;"/><path d="M1570.2316,86.9766 L1570.2316,106.9766 L1590.2316,106.9766 L1570.2316,86.9766" fill="#FEFFDD" style="stroke:#181818;stroke-width:1;"/><text fill="#000000" font-family="sans-serif" font-size="26" lengthAdjust="spacing" textLength="520.4316" x="1039.8" y="122.1133">Synchronisation avec le monde ext&#233;rieur.</text></g><g class="entity" data-entity="GMN8" data-source-line="25" data-uid="ent0009" id="entity_GMN8"><path d="M12,671.0766 L12,721.6977 A0,0 0 0 0 12,721.6977 L578.0498,721.6977 A0,0 0 0 0 578.0498,721.6977 L578.0498,707.0766 L648.42,696.3766 L578.0498,691.0766 L578.0498,691.0766 L558.0498,671.0766 L12,671.0766 A0,0 0 0 0 12,671.0766" fill="#FEFFDD" style="stroke:#181818;stroke-width:1;"/><path d="M558.0498,671.0766 L558.0498,691.0766 L578.0498,691.0766 L558.0498,671.0766" fill="#FEFFDD" style="stroke:#181818;stroke-width:1;"/><text fill="#000000" font-family="sans-serif" font-size="26" lengthAdjust="spacing" textLength="524.0498" x="24" y="706.2133">Annuler les abonnements, les timers, etc.</text></g><!--link *start* to Mounted--><g class="link" data-entity-1=".start." data-entity-2="Mounted" data-source-line="11" data-uid="lnk3" id="link_.start._Mounted"><path d="M257.02,132.7166 C257.02,170.4966 257.02,246.1966 257.02,306.9566" fill="none" id="*start*-to-Mounted" style="stroke:#181818;stroke-width:2;"/><polygon fill="#181818" points="257.02,318.9566,265.02,300.9566,257.02,308.9566,249.02,300.9566,257.02,318.9566" style="stroke:#181818;stroke-width:2;"/><text fill="#000000" font-family="sans-serif" font-size="26" lengthAdjust="spacing" textLength="178.3945" x="259.02" y="224.7333">Premier rendu</text></g><!--link Mounted to Updated--><g class="link" data-entity-1="Mounted" data-entity-2="Updated" data-source-line="12" data-uid="lnk4" id="link_Mounted_Updated"><path d="M351.44,318.8966 C407.74,283.7766 482.24,244.0966 555.02,225.9166 C708.54,187.5966 755.64,196.0966 911.02,225.9166 C980.06,239.1766 1041.2721,259.6876 1105.0121,286.0676" fill="none" id="Mounted-to-Updated" style="stroke:#181818;stroke-width:2;"/><polygon fill="#181818" points="1116.1,290.6566,1102.5274,276.3812,1106.8601,286.8324,1096.4088,291.1651,1116.1,290.6566" style="stroke:#181818;stroke-width:2;"/><text fill="#000000" font-family="sans-serif" font-size="26" lengthAdjust="spacing" textLength="352.4219" x="557.02" y="224.7333">Une prop ou un &#233;tat change</text></g><!--link Updated to Unmounted--><g class="link" data-entity-1="Updated" data-entity-2="Unmounted" data-source-line="13" data-uid="lnk5" id="link_Updated_Unmounted"><path d="M1187.16,478.5366 C1122.12,527.5966 1053.2802,579.5303 995.0002,623.4903" fill="none" id="Updated-to-Unmounted" style="stroke:#181818;stroke-width:2;"/><polygon fill="#181818" points="985.42,630.7166,1004.6079,626.264,993.4035,624.6947,994.9728,613.4903,985.42,630.7166" style="stroke:#181818;stroke-width:2;"/><text fill="#000000" font-family="sans-serif" font-size="26" lengthAdjust="spacing" textLength="383.627" x="1107.02" y="564.7733">Le composant est retir&#233; de l'UI</text></g><!--link Mounted to Unmounted--><g class="link" data-entity-1="Mounted" data-entity-2="Unmounted" data-source-line="14" data-uid="lnk6" id="link_Mounted_Unmounted"><path d="M389.68,450.0166 C500.32,502.8766 646.4128,572.7025 757.1528,625.6225" fill="none" id="Mounted-to-Unmounted" style="stroke:#181818;stroke-width:2;"/><polygon fill="#181818" points="767.98,630.7966,755.1885,615.8173,758.9573,626.4848,748.2898,630.2536,767.98,630.7966" style="stroke:#181818;stroke-width:2;"/></g><!--link Unmounted to *end*--><g class="link" data-entity-1="Unmounted" data-entity-2=".end." data-source-line="15" data-uid="lnk8" id="link_Unmounted_.end."><path d="M901.02,762.0366 C901.02,803.3766 901.02,842.5566 901.02,870.5166" fill="none" id="Unmounted-to-*end*" style="stroke:#181818;stroke-width:2;"/><polygon fill="#181818" points="901.02,882.5166,909.02,864.5166,901.02,872.5166,893.02,864.5166,901.02,882.5166" style="stroke:#181818;stroke-width:2;"/></g><!--SRC=[RLFDQkCm4BxhAOPSqYvDzrvAe6JtaAKBXPAzj8KezZWHs2CZZKhoDdlrS_Z5TYJ_Tib5jeUPxqzZDbmYR2wPd3d27uEWFp63uF5dKM36IYtXHziKXWmRIzBaeMrOirTUJeJ5nbQrzPeOVblYjbc0zl8QY36_qcDa_Y_yii6bnbsTwwkDGbfDU3kgUiGhUjXfykdJgxTl7x1QhGS1y00l3Yk33XnI7jHGbvQUMbfsX50xMuCD4AZp1zb9qn7Lq1L1HnKoyuoGZMBHi-2pSMqJOooNk-t4D1zK4qIiYzfa27tcJ9qSn7JAfOdEdS7WvebFfXQFX_LuHpUO7dVmzd7x-FsmNhpJ2lPTyUPsdzJXkMso8A1gidqT8yUwWuaehmRsKjY3xl8GVm_l123uiZAQGXq9akK8m1AZyBHDZdqg8sy_DQdA0v0DdrX2D_cVobdKebF23OwWvnpKFMieB6Nz8W0Xixte8tx5mXZnnZg7OsUfmL-8zHbJl6GPlOedE7CyCTXYja3Rl6rq2RMiB9JIhUiQImzFBrj8MwZ3-RuRvhX2nMonNY-KdPmbutMYJl-M_6gosQ82pyCbz_Cb5ebxRlw9A9JOCnyi4LQIhRzB1JOLEdb7pkxLFm00]--></g></svg>