<svg xmlns="http://www.w3.org/2000/svg" xmlns:xlink="http://www.w3.org/1999/xlink" contentStyleType="text/css" data-diagram-type="DESCRIPTION" height="1452px" preserveAspectRatio="none" style="width:1188px;height:1452px;background:#FFFFFF;" version="1.1" viewBox="0 0 1188 1452" width="1188px" zoomAndPan="magnify"><title>Architecture avec useContext</title><defs/><g><g class="title" data-source-line="2"><text fill="#000000" font-family="sans-serif" font-size="28" font-weight="bold" lengthAdjust="spacing" textLength="422.5977" x="369.4336" y="47.0703">Architecture avec useContext</text></g><!--cluster Application--><g class="cluster" data-entity="Application" data-source-line="4" data-uid="ent0002" id="cluster_Application"><path d="M17,86.9766 L183.0215,86.9766 A7.5,7.5 0 0 1 188.0215,91.9766 L202.0215,131.9531 L675,131.9531 A5,5 0 0 1 680,136.9531 L680,1197.4966 A5,5 0 0 1 675,1202.4966 L17,1202.4966 A5,5 0 0 1 12,1197.4966 L12,91.9766 A5,5 0 0 1 17,86.9766" fill="none" style="stroke:#000000;stroke-width:3;"/><line style="stroke:#000000;stroke-width:3;" x1="12" x2="202.0215" y1="131.9531" y2="131.9531"/><text fill="#000000" font-family="sans-serif" font-size="28" font-weight="bold" lengthAdjust="spacing" textLength="164.0215" x="20" y="118.0469">Application</text></g><!--cluster App--><g class="cluster" data-entity="App" data-source-line="5" data-uid="ent0003" id="cluster_App"><rect fill="none" height="348.6" rx="5" ry="5" style="stroke:#181818;stroke-width:2;" width="540" x="76" y="188.9766"/><rect fill="none" height="20" style="stroke:#181818;stroke-width:2;" width="30" x="576" y="198.9766"/><rect fill="none" height="4" style="stroke:#181818;stroke-width:2;" width="8" x="572" y="202.9766"/><rect fill="none" height="4" style="stroke:#181818;stroke-width:2;" width="8" x="572" y="210.9766"/><text fill="#000000" font-family="sans-serif" font-size="28" font-weight="bold" lengthAdjust="spacing" textLength="57.7227" x="317.1387" y="242.0469">App</text></g><!--entity Page--><g class="entity" data-entity="Page" data-source-line="9" data-uid="ent0005" id="entity_Page"><rect fill="#F1F1F1" height="92.9766" rx="5" ry="5" style="stroke:#181818;stroke-width:1;" width="143.998" x="274" y="647.5766"/><rect fill="#F1F1F1" height="20" style="stroke:#181818;stroke-width:1;" width="30" x="377.998" y="657.5766"/><rect fill="#F1F1F1" height="4" style="stroke:#181818;stroke-width:1;" width="8" x="373.998" y="661.5766"/><rect fill="#F1F1F1" height="4" style="stroke:#181818;stroke-width:1;" width="8" x="373.998" y="669.5766"/><text fill="#000000" font-family="sans-serif" font-size="28" lengthAdjust="spacing" textLength="63.998" x="304" y="714.6469">Page</text></g><!--entity Toolbar--><g class="entity" data-entity="Toolbar" data-source-line="10" data-uid="ent0006" id="entity_Toolbar"><rect fill="#F1F1F1" height="92.9766" rx="5" ry="5" style="stroke:#181818;stroke-width:1;" width="184.7402" x="253.62" y="862.5566"/><rect fill="#F1F1F1" height="20" style="stroke:#181818;stroke-width:1;" width="30" x="398.3602" y="872.5566"/><rect fill="#F1F1F1" height="4" style="stroke:#181818;stroke-width:1;" width="8" x="394.3602" y="876.5566"/><rect fill="#F1F1F1" height="4" style="stroke:#181818;stroke-width:1;" width="8" x="394.3602" y="884.5566"/><text fill="#000000" font-family="sans-serif" font-size="28" lengthAdjust="spacing" textLength="104.7402" x="283.62" y="929.6269">Toolbar</text></g><!--entity ThemedButton--><g class="entity" data-entity="ThemedButton" data-source-line="11" data-uid="ent0007" id="entity_ThemedButton"><rect fill="#F1F1F1" height="92.9766" rx="5" ry="5" style="stroke:#181818;stroke-width:1;" width="279.0488" x="44.48" y="1077.5166"/><rect fill="#F1F1F1" height="20" style="stroke:#181818;stroke-width:1;" width="30" x="283.5288" y="1087.5166"/><rect fill="#F1F1F1" height="4" style="stroke:#181818;stroke-width:1;" width="8" x="279.5288" y="1091.5166"/><rect fill="#F1F1F1" height="4" style="stroke:#181818;stroke-width:1;" width="8" x="279.5288" y="1099.5166"/><text fill="#000000" font-family="sans-serif" font-size="28" lengthAdjust="spacing" textLength="199.0488" x="74.48" y="1144.5869">ThemedButton</text></g><!--entity ThemedText--><g class="entity" data-entity="ThemedText" data-source-line="12" data-uid="ent0008" id="entity_ThemedText"><rect fill="#F1F1F1" height="92.9766" rx="5" ry="5" style="stroke:#181818;stroke-width:1;" width="250.9941" x="394.5" y="1077.5166"/><rect fill="#F1F1F1" height="20" style="stroke:#181818;stroke-width:1;" width="30" x="605.4941" y="1087.5166"/><rect fill="#F1F1F1" height="4" style="stroke:#181818;stroke-width:1;" width="8" x="601.4941" y="1091.5166"/><rect fill="#F1F1F1" height="4" style="stroke:#181818;stroke-width:1;" width="8" x="601.4941" y="1099.5166"/><text fill="#000000" font-family="sans-serif" font-size="28" lengthAdjust="spacing" textLength="170.9941" x="424.5" y="1144.5869">ThemedText</text></g><!--entity Provider--><g class="entity" data-entity="Provider" data-source-line="6" data-uid="ent0004" id="entity_Provider"><rect fill="#F1F1F1" height="92.9766" rx="5" ry="5" style="stroke:#181818;stroke-width:1;" width="444.8613" x="123.56" y="396.5966"/><rect fill="#F1F1F1" height="20" style="stroke:#181818;stroke-width:1;" width="30" x="528.4213" y="406.5966"/><rect fill="#F1F1F1" height="4" style="stroke:#181818;stroke-width:1;" width="8" x="524.4213" y="410.5966"/><rect fill="#F1F1F1" height="4" style="stroke:#181818;stroke-width:1;" width="8" x="524.4213" y="418.5966"/><text fill="#000000" font-family="sans-serif" font-size="28" lengthAdjust="spacing" textLength="364.8613" x="153.56" y="463.6669">&lt;ThemeContext.Provider&gt;</text></g><!--entity Context--><g class="entity" data-entity="Context" data-source-line="21" data-uid="ent0014" id="entity_Context"><path d="M399.96,1348.4966 C399.96,1328.4966 520.0039,1328.4966 520.0039,1328.4966 C520.0039,1328.4966 640.0479,1328.4966 640.0479,1348.4966 L640.0479,1399.4731 C640.0479,1419.4731 520.0039,1419.4731 520.0039,1419.4731 C520.0039,1419.4731 399.96,1419.4731 399.96,1399.4731 L399.96,1348.4966" fill="#F1F1F1" style="stroke:#181818;stroke-width:1;"/><path d="M399.96,1348.4966 C399.96,1368.4966 520.0039,1368.4966 520.0039,1368.4966 C520.0039,1368.4966 640.0479,1368.4966 640.0479,1348.4966" fill="none" style="stroke:#181818;stroke-width:1;"/><text fill="#000000" font-family="sans-serif" font-size="28" lengthAdjust="spacing" textLength="200.0879" x="419.96" y="1403.5669">ThemeContext</text></g><g class="entity" data-entity="N1" data-source-line="27" data-uid="ent0018" id="entity_N1"><path d="M711.64,417.7766 L711.64,468.3977 A0,0 0 0 0 711.64,468.3977 L1016.3568,468.3977 A0,0 0 0 0 1016.3568,468.3977 L1016.3568,437.7766 L996.3568,417.7766 L872,417.7766 L864,275.3766 L856,417.7766 L711.64,417.7766 A0,0 0 0 0 711.64,417.7766" fill="#FEFFDD" style="stroke:#181818;stroke-width:1;"/><path d="M996.3568,417.7766 L996.3568,437.7766 L1016.3568,437.7766 L996.3568,417.7766" fill="#FEFFDD" style="stroke:#181818;stroke-width:1;"/><text fill="#000000" font-family="sans-serif" font-size="26" lengthAdjust="spacing" textLength="262.7168" x="723.64" y="452.9133">Pas de prop drilling !</text></g><!--entity Page, Toolbar--><g class="entity" data-entity="Page. Toolbar" data-source-line="28" data-uid="ent0019" id="entity_Page. Toolbar"><ellipse cx="863.9914" cy="243.6868" fill="#F1F1F1" rx="130.4514" ry="30.8903" style="stroke:#181818;stroke-width:1;"/><text fill="#000000" font-family="sans-serif" font-size="28" lengthAdjust="spacing" textLength="186.457" x="770.7628" y="253.1751">Page, Toolbar</text></g><!--link App to Provider--><g class="link" data-entity-1="App" data-entity-2="Provider" data-source-line="15" data-uid="lnk9" id="link_App_Provider"><path d="M346,245.8366 C346,249.8966 346,327.6366 346,384.0366" fill="none" id="App-to-Provider" style="stroke:#181818;stroke-width:2;"/><polygon fill="#181818" points="346,396.0366,354,378.0366,346,386.0366,338,378.0366,346,396.0366" style="stroke:#181818;stroke-width:2;"/></g><!--link Provider to Page--><g class="link" data-entity-1="Provider" data-entity-2="Page" data-source-line="16" data-uid="lnk10" id="link_Provider_Page"><path d="M346,490.3766 C346,534.9366 346,590.5766 346,635.0366" fill="none" id="Provider-to-Page" style="stroke:#181818;stroke-width:2;"/><polygon fill="#181818" points="346,647.0366,354,629.0366,346,637.0366,338,629.0366,346,647.0366" style="stroke:#181818;stroke-width:2;"/></g><!--link Page to Toolbar--><g class="link" data-entity-1="Page" data-entity-2="Toolbar" data-source-line="17" data-uid="lnk11" id="link_Page_Toolbar"><path d="M346,741.3166 C346,776.9166 346,814.2766 346,849.8566" fill="none" id="Page-to-Toolbar" style="stroke:#181818;stroke-width:2;"/><polygon fill="#181818" points="346,861.8566,354,843.8566,346,851.8566,338,843.8566,346,861.8566" style="stroke:#181818;stroke-width:2;"/></g><!--link Toolbar to ThemedButton--><g class="link" data-entity-1="Toolbar" data-entity-2="ThemedButton" data-source-line="18" data-uid="lnk12" id="link_Toolbar_ThemedButton"><path d="M311.24,956.2966 C283.92,991.8966 253.3283,1031.7387 226.0083,1067.3187" fill="none" id="Toolbar-to-ThemedButton" style="stroke:#181818;stroke-width:2;"/><polygon fill="#181818" points="218.7,1076.8366,236.0076,1067.432,224.7902,1068.905,223.3171,1057.6876,218.7,1076.8366" style="stroke:#181818;stroke-width:2;"/></g><!--link Toolbar to ThemedText--><g class="link" data-entity-1="Toolbar" data-entity-2="ThemedText" data-source-line="19" data-uid="lnk13" id="link_Toolbar_ThemedText"><path d="M383.32,956.2966 C412.68,991.8966 445.7655,1031.9984 475.1055,1067.5784" fill="none" id="Toolbar-to-ThemedText" style="stroke:#181818;stroke-width:2;"/><polygon fill="#181818" points="482.74,1076.8366,477.4604,1057.8596,476.3779,1069.1214,465.1161,1068.0389,482.74,1076.8366" style="stroke:#181818;stroke-width:2;"/></g><!--link Provider to Context--><g class="link" data-entity-1="Provider" data-entity-2="Context" data-source-line="23" data-uid="lnk15" id="link_Provider_Context"><path d="M472.98,490.4766 C536.78,515.2566 614.28,548.4366 680,585.5766 C749.94,625.0766 826,611.7366 826,692.0566 C826,692.0566 826,692.0566 826,1126.0166 C826,1192.2966 827.04,1219.8766 782,1268.4966 C744.94,1308.5166 701.9323,1329.7773 652.2523,1345.0173" fill="none" id="Provider-to-Context" style="stroke:#0000FF;stroke-width:4;"/><polygon fill="#0000FF" points="640.78,1348.5366,660.3347,1350.9059,650.3403,1345.6038,655.6423,1335.6094,640.78,1348.5366" style="stroke:#0000FF;stroke-width:4;"/><text fill="#000000" font-family="sans-serif" font-size="26" lengthAdjust="spacing" textLength="345.4648" x="828" y="919.1733">Fournit la valeur (ex: 'dark')</text></g><!--link ThemedButton to Context--><g class="link" data-entity-1="ThemedButton" data-entity-2="Context" data-source-line="24" data-uid="lnk16" id="link_ThemedButton_Context"><path d="M191,1171.2166 C198,1202.2766 211.68,1242.4566 238,1268.4966 C281.38,1311.4166 332.4112,1333.6021 387.6312,1348.4421" fill="none" id="ThemedButton-to-Context" style="stroke:#008000;stroke-width:2;stroke-dasharray:14,14;"/><polygon fill="#008000" points="399.22,1351.5566,383.9131,1339.1591,389.5627,1348.9612,379.7605,1354.6108,399.22,1351.5566" style="stroke:#008000;stroke-width:2;"/><text fill="#000000" font-family="sans-serif" font-size="26" lengthAdjust="spacing" textLength="257.2705" x="240" y="1261.6333">Consomme la valeur</text></g><!--link ThemedText to Context--><g class="link" data-entity-1="ThemedText" data-entity-2="Context" data-source-line="25" data-uid="lnk17" id="link_ThemedText_Context"><path d="M516.48,1170.9166 C514.68,1198.9766 513.06,1235.8366 514,1268.4966 C514.56,1287.9366 514.9747,1297.3997 516.1147,1315.7197" fill="none" id="ThemedText-to-Context" style="stroke:#008000;stroke-width:2;stroke-dasharray:14,14;"/><polygon fill="#008000" points="516.86,1327.6966,523.7266,1309.2345,516.2389,1317.7159,507.7575,1310.2282,516.86,1327.6966" style="stroke:#008000;stroke-width:2;"/><text fill="#000000" font-family="sans-serif" font-size="26" lengthAdjust="spacing" textLength="257.2705" x="516" y="1261.6333">Consomme la valeur</text></g><!--SRC=[bL0zQyCm4DtrAwxEa0GSGzTG0ccXOycGBMGuMqSY8kk4V3Q1qlzUoObhXtRf8kdUwTx7YH5Bi0tLsGXLqWO2xAY2jg4tTa9NKSfZTS4JGRRrtfeAnR3Bu5C1L5nxTkG4Ogj7fbZsiZzJFV0Kky2TqHGs6M03GnLdljG3rIvgFG1xPbjYUCGIitvjHTZzqTWduv4tsLgjDgFQyBYXIIaTVJN8tEyRDfNvtUXbb4R14fkue6dUFkNF3aVTmwoqBUKbMtsCHFSVi8PtReCp0XQXGqjjW0LTrp3N62xpfPfQWU8mEmKYbsjipgIFnPGelXgkQngPr6ZttwFAiSHekvX64_Z07dGmrXftWgS-vCUpMgGjviCAbr0K2Vq6]--></g></svg>